<?xml version="1.0" ?><!DOCTYPE svg  PUBLIC '-//W3C//DTD SVG 1.1//EN'  'http://www.w3.org/Graphics/SVG/1.1/DTD/svg11.dtd'><svg enable-background="new 0 0 501.872 326.793" height="326.793" id="Layer_1" overflow="visible" version="1.1" viewBox="0 0 501.872 326.793" width="501.872" xml:space="preserve" xmlns="http://www.w3.org/2000/svg" xmlns:xlink="http://www.w3.org/1999/xlink"><g><g><path d="M423.295,143.786c0,0,9.529-128.362-108.072-142.995C214.42-9.505,183.752,84.17,183.752,84.17    s-30.354-29.196-71.542-5.351c-36.853,22.762-30.346,64.424-30.346,64.424S0,159.148,0,242.609    c1.836,83.346,88.909,84.185,88.909,84.185h320.294c0,0,81.035,0.082,92.416-79.203    C507.042,160.877,423.295,143.786,423.295,143.786z M200.395,260.794l-1.223-2.103l-20.321-34.866l-0.419-0.709l0.41-0.709    l46.725-80.924l1.221-2.117l1.227,2.108l20.327,34.861l0.411,0.709l-0.411,0.708l-46.729,80.934L200.395,260.794z M325.12,229.16    l-20.037,35.029l-0.401,0.713h-96.704l1.213-2.116l20.032-35.029l0.41-0.713h96.705L325.12,229.16z M323.901,218.729    l-40.354,0.168l-0.815,0.004l-0.405-0.707l-46.725-80.935l-1.223-2.117l2.435-0.005l40.354-0.163l0.82-0.004l0.41,0.703    l46.721,80.935l1.227,2.106L323.901,218.729z" fill="#39B29D"/></g></g></svg>