<?xml version="1.0" encoding="UTF-8"?>
<svg width="502px" height="327px" viewBox="0 0 502 327" version="1.1" xmlns="http://www.w3.org/2000/svg" xmlns:xlink="http://www.w3.org/1999/xlink">
    <!-- Generator: Sketch 39.1 (31720) - http://www.bohemiancoding.com/sketch -->
    <title>gcp</title>
    <desc>Created with Sketch.</desc>
    <defs></defs>
    <g id="Page-1" stroke="none" stroke-width="1" fill="none" fill-rule="evenodd">
        <g id="gcp" fill="#222C3D">
            <path d="M315.223,0.791 C214.42,-9.505 183.752,84.17 183.752,84.17 C183.752,84.17 153.398,54.974 112.21,78.819 C75.357,101.581 81.864,143.243 81.864,143.243 C81.864,143.243 0,159.148 0,242.609 C1.836,325.955 88.909,326.794 88.909,326.794 L409.203,326.794 C409.203,326.794 490.238,326.876 501.619,247.591 C507.042,160.877 423.295,143.786 423.295,143.786 C423.295,143.786 432.824,15.424 315.223,0.791 Z M200.395,260.794 L199.172,258.691 L178.851,223.825 L178.432,223.116 L178.842,222.407 L225.567,141.483 L226.788,139.366 L228.015,141.474 L248.342,176.335 L248.753,177.044 L248.342,177.752 L201.613,258.686 L200.395,260.794 L200.395,260.794 Z M325.12,229.16 L305.083,264.189 L304.682,264.902 L207.978,264.902 L209.191,262.786 L229.223,227.757 L229.633,227.044 L326.338,227.044 L325.12,229.16 L325.12,229.16 Z M323.901,218.729 L283.547,218.897 L282.732,218.901 L282.327,218.194 L235.602,137.259 L234.379,135.142 L236.814,135.137 L277.168,134.974 L277.988,134.97 L278.398,135.673 L325.119,216.608 L326.346,218.714 L323.901,218.729 L323.901,218.729 Z" id="Shape"></path>
        </g>
    </g>
</svg>