<?xml version="1.0" encoding="UTF-8"?>
<svg width="14px" height="12px" viewBox="0 0 14 12" version="1.1" xmlns="http://www.w3.org/2000/svg" xmlns:xlink="http://www.w3.org/1999/xlink">
    <!-- Generator: Sketch 39.1 (31720) - http://www.bohemiancoding.com/sketch -->
    <title>Shape</title>
    <desc>Created with Sketch.</desc>
    <defs></defs>
    <g id="Page-1" stroke="none" stroke-width="1" fill="none" fill-rule="evenodd">
        <g id="star" fill="#767676">
            <path d="M0.995276256,4.33352743 C0.847385141,4.35085209 0.716618259,4.44651432 0.667580679,4.59189077 C0.618543098,4.73726722 0.667580679,4.88866964 0.77655308,4.98433187 C1.99548722,6.06072022 3.82700194,7.67266638 3.82700194,7.67266638 C3.82544519,7.67266638 3.32417214,10.0175208 2.99102795,11.5820125 C2.96300647,11.7236227 3.01593592,11.8735186 3.14358931,11.9631549 C3.27046432,12.0527911 3.43392292,12.0542976 3.56235468,11.9842458 C4.99767687,11.1948441 7.14754667,10.0077286 7.14754667,10.0077286 C7.14754667,10.0077286 9.29819485,11.1948441 10.7311819,11.984999 C10.8619488,12.0542976 11.0254074,12.0527911 11.1522824,11.9631549 C11.2799358,11.8735186 11.3328653,11.7236227 11.3040654,11.5827657 C10.9709212,10.0175208 10.4704265,7.67266638 10.4704265,7.67266638 C10.4704265,7.67266638 12.3019412,6.06072022 13.5208754,4.98659161 C13.6298478,4.8879164 13.678107,4.73651398 13.6298478,4.59189077 C13.5815886,4.44726756 13.4508217,4.35160534 13.3029306,4.33503393 C11.6621176,4.1572679 9.20167643,3.89363185 9.20167643,3.89363185 C9.20167643,3.89363185 8.18200611,1.71072531 7.50248535,0.255454286 C7.43865866,0.12514275 7.30477828,0.034 7.14754667,0.034 C6.99031507,0.034 6.85565631,0.125895996 6.79494312,0.255454286 C6.11464399,1.71072531 5.09575204,3.89363185 5.09575204,3.89363185 C5.09575204,3.89363185 2.63608927,4.1572679 0.995276256,4.33352743 Z" id="Shape"></path>
        </g>
    </g>
</svg>