<svg xmlns="http://www.w3.org/2000/svg" viewBox="622 268 36 29">
  <g fill="#ff9900" fill-rule="evenodd">
    <path d="M631.774 296.418l-4.462-1.6v-6.54l4.462 1.52v6.62M632.593 296.418l4.462-1.6v-6.54l-4.462 1.52v6.62M627.77 287.788l4.517-1.272 4.187 1.35-4.187 1.422-4.516-1.5M626.462 287.28l-4.462-1.6v-6.54l4.462 1.52v6.62M627.28 287.28l4.463-1.6v-6.54l-4.462 1.52v6.62M622.46 278.65l4.515-1.27 4.187 1.35-4.187 1.42-4.516-1.5M636.874 287.28l-4.462-1.6v-6.54l4.462 1.52v6.62M637.692 287.28l4.463-1.6v-6.54l-4.463 1.52v6.62M632.87 278.65l4.517-1.27 4.187 1.35-4.187 1.42-4.517-1.5M642.186 278.144l-4.462-1.6v-6.54l4.462 1.52v6.62M643.005 278.144l4.462-1.6v-6.54l-4.462 1.52v6.62M638.183 269.514l4.516-1.27 4.186 1.35-4.187 1.42-4.517-1.5M652.598 278.144l-4.462-1.6v-6.54l4.462 1.52v6.62M653.417 278.144l4.462-1.6v-6.54l-4.463 1.52v6.62M648.595 269.514l4.516-1.27 4.188 1.35-4.187 1.42-4.515-1.5"/>
  </g>
</svg>
